<mxfile host="65bd71144e">
    <diagram id="A3qWTJxBf30MFO97emnY" name="Page-1">
        <mxGraphModel dx="1377" dy="1045" grid="1" gridSize="10" guides="1" tooltips="1" connect="1" arrows="1" fold="1" page="1" pageScale="1" pageWidth="850" pageHeight="1100" math="0" shadow="0">
            <root>
                <mxCell id="0"/>
                <mxCell id="1" parent="0"/>
                <mxCell id="2" value="" style="strokeWidth=1;shadow=0;dashed=0;align=center;html=1;shape=mxgraph.mockup.containers.browserWindow;rSize=0;strokeColor=#666666;strokeColor2=#008cff;strokeColor3=#c4c4c4;mainText=,;recursiveResize=0;" parent="1" vertex="1">
                    <mxGeometry x="10" y="10" width="830" height="600" as="geometry"/>
                </mxCell>
                <mxCell id="3" value="aut.dig" style="strokeWidth=1;shadow=0;dashed=0;align=center;html=1;shape=mxgraph.mockup.containers.anchor;fontSize=17;fontColor=#666666;align=left;" parent="2" vertex="1">
                    <mxGeometry x="60" y="12" width="110" height="26" as="geometry"/>
                </mxCell>
                <mxCell id="4" value="https://autorizacao.digital/signeddoc-qualification" style="strokeWidth=1;shadow=0;dashed=0;align=center;html=1;shape=mxgraph.mockup.containers.anchor;rSize=0;fontSize=17;fontColor=#666666;align=left;" parent="2" vertex="1">
                    <mxGeometry x="130" y="60" width="250" height="26" as="geometry"/>
                </mxCell>
                <mxCell id="20" value="" style="strokeWidth=1;shadow=0;dashed=0;align=center;html=1;shape=mxgraph.mockup.containers.marginRect2;rectMarginTop=32;strokeColor=#666666;gradientColor=none;" parent="2" vertex="1">
                    <mxGeometry x="30" y="200" width="770" height="330" as="geometry"/>
                </mxCell>
                <mxCell id="24" value="" style="strokeWidth=1;shadow=0;dashed=0;align=center;html=1;shape=mxgraph.mockup.containers.topButton;rSize=5;strokeColor=#008cff;fillColor=#008cff;gradientColor=none;resizeWidth=1;movable=0;deletable=1;" parent="20" vertex="1">
                    <mxGeometry width="770" height="7" relative="1" as="geometry">
                        <mxPoint y="25" as="offset"/>
                    </mxGeometry>
                </mxCell>
                <mxCell id="30" value="" style="group" parent="20" vertex="1" connectable="0">
                    <mxGeometry x="20" y="110" width="230" height="60" as="geometry"/>
                </mxCell>
                <mxCell id="31" value="" style="group" parent="30" vertex="1" connectable="0">
                    <mxGeometry width="230" height="60" as="geometry"/>
                </mxCell>
                <mxCell id="32" value="" style="rounded=0;whiteSpace=wrap;html=1;align=left;" parent="31" vertex="1">
                    <mxGeometry y="20" width="230" height="30" as="geometry"/>
                </mxCell>
                <mxCell id="33" value="Nationality" style="text;html=1;strokeColor=none;fillColor=none;align=left;verticalAlign=middle;whiteSpace=wrap;rounded=0;" parent="31" vertex="1">
                    <mxGeometry width="230" height="20" as="geometry"/>
                </mxCell>
                <mxCell id="34" value="" style="group" parent="20" vertex="1" connectable="0">
                    <mxGeometry x="20" y="170" width="230" height="60" as="geometry"/>
                </mxCell>
                <mxCell id="35" value="" style="group" parent="34" vertex="1" connectable="0">
                    <mxGeometry width="230" height="60" as="geometry"/>
                </mxCell>
                <mxCell id="36" value="" style="rounded=0;whiteSpace=wrap;html=1;align=left;" parent="35" vertex="1">
                    <mxGeometry y="20" width="230" height="30" as="geometry"/>
                </mxCell>
                <mxCell id="37" value="Civil status" style="text;html=1;strokeColor=none;fillColor=none;align=left;verticalAlign=middle;whiteSpace=wrap;rounded=0;" parent="35" vertex="1">
                    <mxGeometry width="230" height="20" as="geometry"/>
                </mxCell>
                <mxCell id="38" value="" style="group" parent="20" vertex="1" connectable="0">
                    <mxGeometry x="20" y="230" width="230" height="60" as="geometry"/>
                </mxCell>
                <mxCell id="39" value="" style="group" parent="38" vertex="1" connectable="0">
                    <mxGeometry width="230" height="60" as="geometry"/>
                </mxCell>
                <mxCell id="40" value="" style="rounded=0;whiteSpace=wrap;html=1;align=left;" parent="39" vertex="1">
                    <mxGeometry y="20" width="230" height="30" as="geometry"/>
                </mxCell>
                <mxCell id="41" value="Profession" style="text;html=1;strokeColor=none;fillColor=none;align=left;verticalAlign=middle;whiteSpace=wrap;rounded=0;" parent="39" vertex="1">
                    <mxGeometry width="230" height="20" as="geometry"/>
                </mxCell>
                <mxCell id="59" value="" style="group" parent="20" vertex="1" connectable="0">
                    <mxGeometry x="520" y="50" width="230" height="60" as="geometry"/>
                </mxCell>
                <mxCell id="60" value="" style="group" parent="59" vertex="1" connectable="0">
                    <mxGeometry width="230" height="60" as="geometry"/>
                </mxCell>
                <mxCell id="61" value="" style="rounded=0;whiteSpace=wrap;html=1;align=left;" parent="60" vertex="1">
                    <mxGeometry y="20" width="230" height="30" as="geometry"/>
                </mxCell>
                <mxCell id="62" value="State" style="text;html=1;strokeColor=none;fillColor=none;align=left;verticalAlign=middle;whiteSpace=wrap;rounded=0;" parent="60" vertex="1">
                    <mxGeometry width="230" height="20" as="geometry"/>
                </mxCell>
                <mxCell id="42" value="" style="group" parent="20" vertex="1" connectable="0">
                    <mxGeometry x="270" y="50" width="230" height="60" as="geometry"/>
                </mxCell>
                <mxCell id="43" value="" style="group" parent="42" vertex="1" connectable="0">
                    <mxGeometry width="230" height="60" as="geometry"/>
                </mxCell>
                <mxCell id="44" value="" style="rounded=0;whiteSpace=wrap;html=1;align=left;" parent="43" vertex="1">
                    <mxGeometry y="20" width="230" height="30" as="geometry"/>
                </mxCell>
                <mxCell id="45" value="ID" style="text;html=1;strokeColor=none;fillColor=none;align=left;verticalAlign=middle;whiteSpace=wrap;rounded=0;" parent="43" vertex="1">
                    <mxGeometry width="230" height="20" as="geometry"/>
                </mxCell>
                <mxCell id="26" value="" style="group" parent="20" vertex="1" connectable="0">
                    <mxGeometry x="20" y="50" width="230" height="60" as="geometry"/>
                </mxCell>
                <mxCell id="27" value="" style="group" parent="26" vertex="1" connectable="0">
                    <mxGeometry width="230" height="60" as="geometry"/>
                </mxCell>
                <mxCell id="28" value="" style="rounded=0;whiteSpace=wrap;html=1;align=left;" parent="27" vertex="1">
                    <mxGeometry y="20" width="230" height="30" as="geometry"/>
                </mxCell>
                <mxCell id="29" value="Name" style="text;html=1;strokeColor=none;fillColor=none;align=left;verticalAlign=middle;whiteSpace=wrap;rounded=0;" parent="27" vertex="1">
                    <mxGeometry width="230" height="20" as="geometry"/>
                </mxCell>
                <mxCell id="46" value="" style="group" parent="20" vertex="1" connectable="0">
                    <mxGeometry x="270" y="115" width="230" height="60" as="geometry"/>
                </mxCell>
                <mxCell id="47" value="" style="group" parent="46" vertex="1" connectable="0">
                    <mxGeometry width="230" height="60" as="geometry"/>
                </mxCell>
                <mxCell id="48" value="" style="rounded=0;whiteSpace=wrap;html=1;align=left;" parent="47" vertex="1">
                    <mxGeometry y="20" width="230" height="30" as="geometry"/>
                </mxCell>
                <mxCell id="49" value="Tax ID" style="text;html=1;strokeColor=none;fillColor=none;align=left;verticalAlign=middle;whiteSpace=wrap;rounded=0;" parent="47" vertex="1">
                    <mxGeometry width="230" height="20" as="geometry"/>
                </mxCell>
                <mxCell id="50" value="" style="group" parent="20" vertex="1" connectable="0">
                    <mxGeometry x="270" y="175" width="230" height="60" as="geometry"/>
                </mxCell>
                <mxCell id="51" value="" style="group" parent="50" vertex="1" connectable="0">
                    <mxGeometry width="230" height="60" as="geometry"/>
                </mxCell>
                <mxCell id="52" value="" style="rounded=0;whiteSpace=wrap;html=1;align=left;" parent="51" vertex="1">
                    <mxGeometry y="20" width="230" height="30" as="geometry"/>
                </mxCell>
                <mxCell id="53" value="Address" style="text;html=1;strokeColor=none;fillColor=none;align=left;verticalAlign=middle;whiteSpace=wrap;rounded=0;" parent="51" vertex="1">
                    <mxGeometry width="230" height="20" as="geometry"/>
                </mxCell>
                <mxCell id="54" value="" style="group" parent="20" vertex="1" connectable="0">
                    <mxGeometry x="270" y="235" width="230" height="60" as="geometry"/>
                </mxCell>
                <mxCell id="55" value="" style="group" parent="54" vertex="1" connectable="0">
                    <mxGeometry width="230" height="60" as="geometry"/>
                </mxCell>
                <mxCell id="56" value="" style="rounded=0;whiteSpace=wrap;html=1;align=left;" parent="55" vertex="1">
                    <mxGeometry y="20" width="230" height="30" as="geometry"/>
                </mxCell>
                <mxCell id="57" value="City" style="text;html=1;strokeColor=none;fillColor=none;align=left;verticalAlign=middle;whiteSpace=wrap;rounded=0;" parent="55" vertex="1">
                    <mxGeometry width="230" height="20" as="geometry"/>
                </mxCell>
                <mxCell id="63" value="" style="group" parent="20" vertex="1" connectable="0">
                    <mxGeometry x="520" y="115" width="230" height="60" as="geometry"/>
                </mxCell>
                <mxCell id="64" value="" style="group" parent="63" vertex="1" connectable="0">
                    <mxGeometry width="230" height="60" as="geometry"/>
                </mxCell>
                <mxCell id="65" value="" style="rounded=0;whiteSpace=wrap;html=1;align=left;" parent="64" vertex="1">
                    <mxGeometry y="20" width="230" height="30" as="geometry"/>
                </mxCell>
                <mxCell id="66" value="Zip code" style="text;html=1;strokeColor=none;fillColor=none;align=left;verticalAlign=middle;whiteSpace=wrap;rounded=0;" parent="64" vertex="1">
                    <mxGeometry width="230" height="20" as="geometry"/>
                </mxCell>
                <mxCell id="67" value="" style="group" parent="20" vertex="1" connectable="0">
                    <mxGeometry x="520" y="175" width="230" height="60" as="geometry"/>
                </mxCell>
                <mxCell id="68" value="" style="group" parent="67" vertex="1" connectable="0">
                    <mxGeometry width="230" height="60" as="geometry"/>
                </mxCell>
                <mxCell id="69" value="" style="rounded=0;whiteSpace=wrap;html=1;align=left;" parent="68" vertex="1">
                    <mxGeometry y="20" width="230" height="30" as="geometry"/>
                </mxCell>
                <mxCell id="70" value="Email address" style="text;html=1;strokeColor=none;fillColor=none;align=left;verticalAlign=middle;whiteSpace=wrap;rounded=0;" parent="68" vertex="1">
                    <mxGeometry width="230" height="20" as="geometry"/>
                </mxCell>
                <mxCell id="71" value="" style="group" parent="20" vertex="1" connectable="0">
                    <mxGeometry x="520" y="235" width="230" height="60" as="geometry"/>
                </mxCell>
                <mxCell id="72" value="" style="group" parent="71" vertex="1" connectable="0">
                    <mxGeometry width="230" height="60" as="geometry"/>
                </mxCell>
                <mxCell id="73" value="" style="rounded=0;whiteSpace=wrap;html=1;align=left;" parent="72" vertex="1">
                    <mxGeometry y="20" width="230" height="30" as="geometry"/>
                </mxCell>
                <mxCell id="74" value="Area of law" style="text;html=1;strokeColor=none;fillColor=none;align=left;verticalAlign=middle;whiteSpace=wrap;rounded=0;" parent="72" vertex="1">
                    <mxGeometry width="230" height="20" as="geometry"/>
                </mxCell>
                <mxCell id="75" value="" style="strokeWidth=1;html=1;shape=mxgraph.flowchart.merge_or_storage;whiteSpace=wrap;" parent="72" vertex="1">
                    <mxGeometry x="210" y="30" width="15" height="10" as="geometry"/>
                </mxCell>
                <mxCell id="21" value="PROXY" style="strokeColor=inherit;fillColor=inherit;gradientColor=inherit;strokeWidth=1;shadow=0;dashed=0;align=center;html=1;shape=mxgraph.mockup.containers.rrect;rSize=0;fontSize=17;fontColor=#666666;gradientColor=none;" parent="2" vertex="1">
                    <mxGeometry width="110" height="25" relative="1" as="geometry">
                        <mxPoint x="360" y="200" as="offset"/>
                    </mxGeometry>
                </mxCell>
                <mxCell id="22" value="QUALIFICATION" style="strokeWidth=1;shadow=0;dashed=0;align=center;html=1;shape=mxgraph.mockup.containers.rrect;rSize=0;fontSize=17;fontColor=#ffffff;strokeColor=#008cff;fillColor=#008cff;" parent="2" vertex="1">
                    <mxGeometry width="170" height="25" relative="1" as="geometry">
                        <mxPoint x="30" y="200" as="offset"/>
                    </mxGeometry>
                </mxCell>
                <mxCell id="25" value="CONTRACT" style="strokeColor=inherit;fillColor=inherit;gradientColor=inherit;strokeWidth=1;shadow=0;dashed=0;align=center;html=1;shape=mxgraph.mockup.containers.rrect;rSize=0;fontSize=17;fontColor=#666666;gradientColor=none;" parent="2" vertex="1">
                    <mxGeometry width="140" height="25" relative="1" as="geometry">
                        <mxPoint x="210" y="200" as="offset"/>
                    </mxGeometry>
                </mxCell>
                <mxCell id="6" value="&lt;b&gt;&lt;font style=&quot;font-size: 15px&quot;&gt;aut.dig&lt;/font&gt;&lt;/b&gt;" style="text;html=1;strokeColor=none;fillColor=none;align=center;verticalAlign=middle;whiteSpace=wrap;rounded=0;" parent="1" vertex="1">
                    <mxGeometry x="445" y="158" width="40" height="20" as="geometry"/>
                </mxCell>
                <mxCell id="76" value="" style="shape=mxgraph.mockup.markup.scratchOut;shadow=0;dashed=0;html=1;strokeColor=#999999;strokeWidth=2;" parent="1" vertex="1">
                    <mxGeometry x="370" y="153" width="55" height="30" as="geometry"/>
                </mxCell>
                <mxCell id="77" value="SIGN FINGER" style="rounded=1;whiteSpace=wrap;html=1;align=center;fillColor=#008a00;strokeColor=#005700;fontColor=#ffffff;" vertex="1" parent="1">
                    <mxGeometry x="40" y="560" width="150" height="30" as="geometry"/>
                </mxCell>
                <mxCell id="78" value="NEXT LEVEL" style="rounded=1;whiteSpace=wrap;html=1;align=center;fillColor=#0050ef;strokeColor=#001DBC;fontColor=#ffffff;" vertex="1" parent="1">
                    <mxGeometry x="200" y="560" width="140" height="30" as="geometry"/>
                </mxCell>
                <mxCell id="79" value="&lt;font color=&quot;#ffffff&quot;&gt;GO BACK&lt;/font&gt;" style="rounded=1;whiteSpace=wrap;html=1;align=center;fillColor=#0050ef;strokeColor=#001DBC;fontColor=#ffffff;" vertex="1" parent="1">
                    <mxGeometry x="350" y="560" width="140" height="30" as="geometry"/>
                </mxCell>
                <mxCell id="80" value="" style="group" vertex="1" connectable="0" parent="1">
                    <mxGeometry x="670" y="560" width="140" height="30" as="geometry"/>
                </mxCell>
                <mxCell id="81" value="" style="rounded=1;whiteSpace=wrap;html=1;align=center;strokeWidth=1;" vertex="1" parent="80">
                    <mxGeometry width="140" height="30" as="geometry"/>
                </mxCell>
                <mxCell id="82" value="not signed" style="rounded=1;whiteSpace=wrap;html=1;align=center;strokeColor=#001DBC;fontColor=#ffffff;fillColor=#A8A8A8;" vertex="1" parent="80">
                    <mxGeometry x="8" y="6" width="90" height="20" as="geometry"/>
                </mxCell>
            </root>
        </mxGraphModel>
    </diagram>
</mxfile>